<?xml version="1.0" encoding="UTF-8" standalone="no"?>
<!-- Created with Inkscape (http://www.inkscape.org/) -->

<svg
   version="1.1"
   id="svg2"
   xml:space="preserve"
   width="500"
   height="564.73352"
   viewBox="0 0 500 564.73352"
   xmlns="http://www.w3.org/2000/svg"
   xmlns:svg="http://www.w3.org/2000/svg"><defs
     id="defs6"><clipPath
       clipPathUnits="userSpaceOnUse"
       id="clipPath16"><path
         d="M 0,1417.32 H 1417.32 V 0 H 0 Z"
         id="path14" /></clipPath></defs><g
     id="g8"
     transform="matrix(1.3333333,0,0,-1.3333333,-365.29679,1595.2129)"><g
       id="g10"
       transform="matrix(0.43418805,0,0,0.43418805,155.01697,676.94291)"><g
         id="g12"
         clip-path="url(#clipPath16)"><g
           id="g18"
           transform="translate(273.9726,437.8523)"><path
             d="m 0,0 c 4.05,-1.025 8.148,-1.89 12.141,-3.101 24.238,-7.354 48.748,-13.635 73.675,-18.126 11.177,-2.014 22.493,-3.257 33.751,-4.809 1.462,-0.201 2.958,-0.156 5.227,-0.261 -8.767,18.016 -16.577,35.78 -23.287,54.006 -6.664,18.101 -12.49,36.451 -16.672,55.443 35.106,-34.288 73.9,-63.43 117.08,-87.216 -19.162,-34.938 -38.093,-69.456 -57.208,-104.309 -2.338,1.294 -4.405,2.428 -6.464,3.579 C 101.073,-84.02 66.53,-59.485 34.325,-31.682 23.782,-22.58 13.829,-12.795 3.568,-3.364 2.514,-2.395 1.196,-1.715 0,-0.901 Z"
             style="fill:#000000;fill-opacity:1;fill-rule:nonzero;stroke:none"
             id="path20" /></g><g
           id="g22"
           transform="translate(793.1208,1168.0007)"><path
             d="m 0,0 c -3.05,-1.383 -5.319,-2.411 -7.879,-3.572 1.655,-2.183 3.132,-4.131 5.194,-6.851 C -1.686,-6.545 -0.938,-3.641 0,0 m -156.588,-49.382 c 1.101,-3.896 1.942,-6.875 2.991,-10.588 2.039,2.76 3.491,4.725 5.084,6.881 -2.634,1.209 -4.903,2.251 -8.075,3.707 m 140.629,-10.931 c 0.939,3.969 1.655,6.997 2.573,10.881 -3.119,-1.461 -5.314,-2.489 -7.767,-3.638 1.664,-2.32 3.101,-4.324 5.194,-7.243 m -154.15,60.48 c 1.801,-3.664 1.285,-7.152 3.672,-10.115 1.605,2.33 2.969,4.31 4.435,6.437 -2.685,1.218 -4.911,2.228 -8.107,3.678 m 34.936,-45.898 c -2.985,-0.117 -5.623,-2.977 -5.486,-5.947 0.136,-2.942 3.139,-5.637 6.022,-5.405 2.729,0.219 5.385,3.053 5.358,5.718 -0.03,2.874 -3.034,5.746 -5.894,5.634 m 55.736,-2.974 c -0.06,3.087 -2.716,5.699 -5.755,5.659 -2.906,-0.038 -5.445,-2.875 -5.327,-5.953 0.119,-3.107 2.623,-5.392 5.909,-5.393 2.64,-10e-4 5.228,2.844 5.173,5.687 m 50.432,-2.691 c -0.008,3.039 -2.77,5.768 -5.731,5.662 -2.846,-0.102 -5.271,-2.594 -5.343,-5.491 -0.077,-3.136 2.442,-5.89 5.374,-5.874 3.047,0.016 5.708,2.678 5.7,5.703 M 21.73,-682.859 c -13.85,-4.417 -24.986,-13.162 -35.636,-22.674 13.434,5.051 26.331,10.959 35.636,22.674 m -176.817,-23.386 c -7.395,7.992 -28.83,22.998 -36.369,23.015 9.505,-11.464 22.281,-17.338 36.369,-23.015 m -5.121,-13.594 c -8.878,4.514 -36.459,10.322 -43.41,6.975 13.802,-6.494 28.506,-7.285 43.41,-6.975 m 194.468,7.225 c -10.333,1.977 -38.572,-2.892 -44.049,-7.481 15.053,-0.078 29.78,0.69 44.049,7.481 M -124.286,4.259 c 3.736,-3.078 7.667,-6.315 11.401,-9.392 3.36,3.968 6.512,7.69 9.566,11.297 -3.871,3.16 -7.74,6.32 -11.526,9.411 -3.163,-3.793 -6.284,-7.533 -9.441,-11.316 m 58.02,1.939 c 3.173,-3.816 6.397,-7.694 9.476,-11.399 3.812,3.223 7.619,6.443 11.294,9.55 -3.193,3.826 -6.323,7.575 -9.479,11.355 -3.795,-3.195 -7.625,-6.42 -11.291,-9.506 m 16.855,-56.5 c -3.231,3.832 -6.48,7.686 -9.54,11.315 -3.88,-3.244 -7.71,-6.447 -11.352,-9.492 3.172,-3.798 6.302,-7.546 9.495,-11.368 3.662,3.066 7.42,6.214 11.397,9.545 m -61.292,11.361 c -3.156,-3.799 -6.425,-7.735 -9.51,-11.45 3.887,-3.22 7.65,-6.336 11.412,-9.451 3.034,3.675 6.22,7.535 9.398,11.384 -3.68,3.099 -7.532,6.344 -11.3,9.517 m -165.9,-587.594 c 0.991,-14.975 17.735,-32.05 28.365,-36.322 -8.556,12.788 -14.825,27.207 -28.365,36.322 m 383.829,0.196 c -13.909,-9.581 -20.295,-23.815 -28.308,-36.8 13.503,8.77 24.957,19.113 28.308,36.8 m -19.31,-51.52 c 0.052,-0.403 0.104,-0.805 0.156,-1.208 5.285,0.712 10.58,1.348 15.851,2.15 10.976,1.671 21.027,5.617 29.829,12.491 0.722,0.563 1.245,1.381 2.123,2.379 -17.998,-0.523 -32.952,-8.246 -47.959,-15.812 m -393.523,15.899 c 8.444,-9.843 35.215,-18.788 48.357,-16.152 -15.416,7.953 -30.441,15.471 -48.357,16.152 m -54.225,298.593 c -10.16,-4.59 -20.918,-16.771 -21.236,-26.378 5.104,1.393 10.11,2.683 15.053,4.182 0.849,0.257 1.566,1.311 2.114,2.148 3.931,6.006 4.872,12.628 4.069,20.048 m 572.531,-29.659 c -2.043,13.079 -13.336,27.343 -22.719,29.199 -1.379,-9.071 2.261,-17.905 6.925,-23.773 0.612,-0.77 1.522,-1.522 2.439,-1.793 4.268,-1.263 8.586,-2.355 13.355,-3.633 m -64.291,172.209 c -7.337,12.178 -27.248,26.006 -42.826,24.201 3.886,-6.445 9.14,-11.385 15.786,-14.243 8.597,-3.697 17.569,-6.519 27.04,-9.958 m -466.286,0.894 c 0.269,-0.085 0.585,-0.306 0.801,-0.233 8.192,2.769 16.517,5.214 24.515,8.461 7.288,2.959 12.894,8.28 17.409,15 -14.534,1.759 -33.208,-9.819 -42.725,-23.228 M 162.566,-548 c -3.697,-4.028 -5.577,-8.842 -6.908,-13.875 -1.849,-6.996 -1.728,-14.214 -2.077,-21.373 -0.214,-4.381 -0.429,-8.763 -0.661,-13.498 11.823,13.03 17.745,33.673 9.646,48.746 m -494.863,0.338 c -8.633,-17.262 -0.511,-38.871 9.717,-49.119 -0.305,6.394 -0.546,13.082 -0.972,19.759 -0.276,4.312 -0.547,8.657 -1.316,12.897 -1.072,5.912 -3.295,11.423 -7.429,16.463 m 23.357,391.291 c -8.555,-4.951 -14.919,-10.784 -19.285,-18.728 -3.644,-6.63 -5.516,-13.834 -7.089,-21.148 -0.314,-1.458 -0.661,-2.909 -0.961,-4.37 -0.262,-1.28 -0.479,-2.57 -0.716,-3.855 12.389,14.086 23.756,28.543 28.051,48.101 m 448.765,-0.784 c 3.849,-18.758 14.965,-33.214 27.029,-47.184 0.088,1.708 -0.16,3.27 -0.492,4.813 -1.794,8.344 -3.628,16.652 -7.759,24.278 -4.345,8.022 -10.719,13.851 -18.778,18.093 m 22.001,-116.643 c 1.09,-6.658 5.418,-14.708 11.073,-18.838 8.001,-5.843 16.395,-11.149 24.964,-16.915 -4.458,16.927 -18.581,33.15 -36.037,35.753 m -529.318,-35.44 c 5.971,3.789 11.973,7.36 17.704,11.322 3.676,2.541 7.201,5.411 10.346,8.58 4.221,4.253 7.021,9.411 7.955,15.624 -17.748,-2.758 -31.677,-19.14 -36.005,-35.526 m 581.1,-147.318 c 0.448,0.694 0.864,1.051 0.907,1.448 0.844,7.875 1.657,15.752 2.43,23.633 0.07,0.717 0.09,1.705 -0.319,2.162 -3.094,3.452 -6.301,6.802 -9.473,10.184 -2.726,-0.53 -5.461,-1.018 -8.174,-1.607 -1.46,-0.316 -2.874,-0.836 -4.324,-1.206 -1.644,-0.42 -3.382,-0.605 -4.896,-1.944 10.52,-9.18 19.115,-19.402 23.849,-32.67 m -597.619,0.365 c 5.491,12.948 14.198,23.221 24.83,32.736 -2.948,0.861 -5.181,1.608 -7.462,2.156 -3.429,0.824 -6.892,1.508 -10.34,2.251 -2.588,-2.703 -5.18,-5.401 -7.757,-8.115 -0.307,-0.322 -0.628,-0.689 -0.772,-1.096 -0.481,-1.359 -1.319,-2.771 -1.239,-4.117 0.283,-4.77 0.842,-9.527 1.39,-14.278 0.368,-3.189 0.894,-6.359 1.35,-9.537 M 218.58,-578.733 c -20.557,-5.163 -34.528,-18.395 -47.892,-33.17 0.863,-0.049 1.348,-0.217 1.716,-0.078 6.985,2.654 14.106,5.016 20.898,8.099 11.242,5.102 20.073,12.891 25.278,25.149 m -559.679,-33.024 c -12.884,14.735 -26.759,28.035 -47.223,33 4.1,-9.335 10.192,-16.146 18.18,-21.226 8.9,-5.66 18.996,-8.545 29.043,-11.774 m 530.108,154.083 c -2.494,-5.678 -3.287,-11.193 -2.358,-16.937 1.981,-12.242 9.267,-22.536 12.368,-34.959 7.262,18.121 4.519,39.354 -10.01,51.896 m -558.11,-51.446 c 3.602,8.847 7.182,17.174 10.355,25.652 1.346,3.596 2.209,7.471 2.628,11.292 0.554,5.04 -0.271,9.991 -2.776,14.708 -13.684,-12.999 -17.196,-31.403 -10.207,-51.652 m 586.005,267.24 c -5.007,-20.651 -0.348,-39.404 6.932,-57.909 1.113,3.296 1.778,6.595 2.409,9.902 1.514,7.936 3.197,15.862 2.103,24.025 -1.204,8.976 -4.827,16.792 -11.444,23.982 m -474.525,91.977 c 0.189,-0.344 0.379,-0.687 0.569,-1.031 0.542,0.135 1.107,0.211 1.624,0.413 8.355,3.265 16.7,6.558 25.058,9.82 11.761,4.589 23.017,10.099 32.924,18.063 0.857,0.689 1.62,1.496 3.037,2.816 -5.025,0.638 -9.071,-0.201 -13.117,-0.891 -12.586,-2.147 -23.298,-8.386 -33.403,-15.723 -5.778,-4.195 -11.142,-8.959 -16.692,-13.467 m -136.439,-150.105 0.981,0.037 c 6.632,18.609 11.836,37.392 6.532,57.852 -0.628,-0.552 -1.077,-0.867 -1.425,-1.269 -0.783,-0.905 -1.573,-1.812 -2.258,-2.79 -6.944,-9.913 -9.477,-20.854 -7.491,-32.8 1.168,-7.019 2.437,-14.021 3.661,-21.03 m 481.392,148.985 c 0.168,0.194 0.336,0.388 0.504,0.582 -0.364,0.455 -0.663,0.987 -1.101,1.351 -5.068,4.207 -10.002,8.595 -15.271,12.534 -11.932,8.92 -24.975,15.401 -40.056,16.897 -1.943,0.192 -4.023,0.501 -6.493,-0.523 7.628,-6.566 15.455,-11.778 24.149,-15.536 9.068,-3.92 18.293,-7.48 27.464,-11.16 3.58,-1.436 7.202,-2.767 10.804,-4.145 m 156.607,-257.941 c 3.114,4.683 6.025,8.638 8.475,12.86 2.916,5.025 5.893,10.099 8.027,15.476 3.834,9.656 3.243,19.397 -0.817,29.193 -11.101,-13.257 -17.225,-33.422 -15.685,-57.529 m -674.394,-59.7 c -0.753,-9.785 2.269,-19.089 8.431,-26.898 5.249,-6.652 11.905,-11.744 18.573,-16.827 2.421,-1.846 4.802,-3.743 7.202,-5.616 -6.311,19.886 -15.351,37.679 -34.206,49.341 m 656.901,-49.567 c 6.069,4.836 12.275,9.512 18.171,14.55 6.805,5.815 12.245,12.702 14.765,21.511 1.218,4.255 2.221,8.545 1.327,13.488 -18.822,-11.708 -27.987,-29.593 -34.263,-49.549 m -655.598,166.888 c -0.454,-0.969 -0.725,-1.454 -0.916,-1.968 -4.647,-12.514 -2.737,-24.44 3.636,-35.763 3.44,-6.112 7.446,-11.906 11.215,-17.832 0.502,-0.79 1.111,-1.512 1.968,-2.665 0.801,23.283 -3.82,42.908 -15.903,58.228 M 79.409,-572.401 c -32.97,18.52 -65.852,36.991 -99.257,55.755 -19.596,-69.916 -39.04,-139.286 -58.62,-209.143 1.602,0.239 2.492,0.259 3.311,0.51 12.313,3.775 24.626,7.549 36.908,11.42 1.384,0.437 2.731,1.288 3.841,2.243 3.521,3.025 6.847,6.279 10.383,9.285 8.438,7.174 16.544,14.827 25.521,21.258 19.498,13.97 39.453,27.3 59.236,40.87 0.525,0.36 1.218,0.473 2.245,0.855 -1.502,-17.462 -9.752,-31.138 -20.927,-43.516 3.802,1.377 7.217,3.199 10.803,4.575 5.624,2.157 9.461,5.989 12.187,11.282 4.528,8.791 9.07,17.585 13.968,26.172 5.492,9.63 11.438,18.998 17.09,28.538 7.791,13.15 15.486,26.358 23.243,39.529 0.562,0.954 1.297,1.807 2.336,3.235 8.921,-19.534 10.163,-38.794 2.85,-58.942 1.056,0.525 1.529,0.633 1.821,0.924 4.666,4.647 9.348,9.281 13.914,14.025 0.641,0.665 0.943,1.886 0.978,2.865 0.258,7.028 0.671,14.065 0.518,21.087 -0.163,7.464 -1.005,14.91 -1.351,22.373 -0.41,8.84 0.289,17.641 1.458,26.404 1.522,11.407 2.869,22.843 4.674,34.206 0.828,5.219 1.768,10.519 4.285,16.061 18.83,-15.907 31.06,-34.869 33.406,-59.687 3.234,5.872 5.807,11.752 8.696,17.473 1.722,3.412 1.66,6.504 -0.106,9.811 -4.376,8.19 -8.493,16.522 -13.008,24.633 -6.21,11.154 -12.411,22.278 -14.661,35.07 -1.165,6.626 -2.37,13.246 -3.399,19.893 -0.582,3.756 -0.843,7.562 -1.303,11.849 -44.255,-12.393 -87.969,-24.634 -132.119,-36.997 18.806,-33.445 37.287,-66.313 55.798,-99.234 -0.871,-0.984 -1.519,-1.796 -2.253,-2.523 -0.734,-0.726 -1.553,-1.366 -2.466,-2.159 m -229.242,55.769 c -33.929,-19.066 -67.214,-37.77 -100.283,-56.352 -1.695,1.218 -3.131,2.251 -4.735,3.404 19.13,34.041 37.88,67.405 56.821,101.109 -44.48,12.448 -88.254,24.699 -132.255,37.013 -0.533,-5.422 -0.825,-10.183 -1.5,-14.888 -1.596,-11.124 -3.239,-22.317 -7.904,-32.633 -3.574,-7.904 -8.025,-15.408 -12.039,-23.116 -3.736,-7.173 -7.417,-14.375 -11.104,-21.575 -1.442,-2.817 -1.582,-5.469 0.014,-8.484 2.73,-5.156 4.965,-10.574 7.455,-15.859 0.382,-0.811 1.019,-1.503 1.898,-2.767 1.872,25.444 14.285,44.271 32.926,60.316 0.611,-1.53 1.065,-2.432 1.337,-3.386 3.251,-11.407 5.017,-23.095 6.431,-34.839 0.875,-7.269 1.96,-14.545 2.236,-21.845 0.338,-8.963 0.048,-17.957 -0.188,-26.932 -0.211,-8.076 -1.151,-16.154 -0.986,-24.214 0.225,-11.041 0.542,-11.035 8.49,-18.981 2.823,-2.823 5.651,-5.641 8.477,-8.462 -2.705,10.072 -4.819,19.845 -4.045,30.19 0.76,10.167 2.645,19.876 7.774,29.361 1.339,-2.144 2.328,-3.643 3.233,-5.19 6.582,-11.257 13.086,-22.559 19.734,-33.776 6.114,-10.315 12.558,-20.438 18.521,-30.837 5.142,-8.966 9.943,-18.136 14.641,-27.346 2.793,-5.474 6.736,-9.336 12.505,-11.551 3.698,-1.419 7.198,-3.353 10.787,-5.056 -11.382,12.633 -19.477,26.442 -21.061,44.345 1.43,-0.793 2.092,-1.091 2.68,-1.497 14.812,-10.218 29.454,-20.692 44.466,-30.606 15.313,-10.112 29.653,-21.34 42.93,-34.005 4.263,-4.068 8.401,-8.315 14.627,-9.998 11.414,-3.083 22.635,-6.877 33.945,-10.344 0.772,-0.237 1.623,-0.217 2.789,-0.359 -19.556,69.778 -38.984,139.105 -58.617,209.16 m -242.851,117.134 c 0.043,-0.397 0.085,-0.795 0.127,-1.192 h 200.954 c 0.21,-0.55 0.297,-0.683 0.308,-0.823 0.074,-0.894 0.155,-1.788 0.189,-2.683 0.556,-14.52 3.072,-28.633 9.123,-41.934 1.259,-2.766 1.049,-4.872 -0.425,-7.476 -17.365,-30.681 -34.62,-61.424 -51.89,-92.158 -0.607,-1.081 -1.076,-2.239 -1.61,-3.361 0.201,-0.127 0.401,-0.253 0.601,-0.38 24.267,24.261 48.533,48.522 72.648,72.632 6.195,-5.077 11.722,-10.172 17.824,-14.446 6.024,-4.219 12.629,-7.606 19.333,-11.568 -6.431,-3.665 -12.516,-7.131 -18.765,-10.692 18.562,-66.226 37.03,-132.115 55.499,-198.004 0.316,0.054 0.632,0.109 0.948,0.164 v 100.185 100.7 c 2.196,0 3.813,0.003 5.43,-0.001 14.16,-0.038 27.738,2.895 40.646,8.578 3.579,1.576 6.214,1.419 9.581,-0.493 29.874,-16.961 59.851,-33.74 89.807,-50.556 0.915,-0.513 1.935,-0.84 2.906,-1.253 0.123,0.214 0.245,0.429 0.368,0.644 -23.82,23.821 -47.641,47.641 -71.676,71.677 11.167,10.609 19.485,22.564 25.853,36.77 3.656,-6.368 6.838,-11.911 10.182,-17.735 33.115,9.264 66.015,18.439 98.898,27.675 32.891,9.239 65.822,18.341 98.678,27.699 -0.06,0.351 -0.121,0.701 -0.181,1.052 H 23.54 c -0.092,1.863 -0.225,3.326 -0.229,4.79 -0.044,14.942 -3.39,29.163 -9.687,42.651 -1.378,2.953 -1.192,5.108 0.374,7.871 16.717,29.495 33.307,59.061 49.921,88.614 0.848,1.509 1.592,3.077 2.385,4.617 -0.217,0.15 -0.435,0.301 -0.652,0.451 -23.911,-23.901 -47.821,-47.803 -71.966,-71.938 -10.803,10.967 -23.011,19.191 -37.492,25.447 6.586,3.766 12.381,7.081 18.283,10.456 -0.478,1.867 -0.853,3.456 -1.292,5.027 -15.558,55.591 -31.12,111.182 -46.69,166.77 -1.617,5.775 -3.3,11.532 -4.925,17.305 -0.41,1.458 -0.936,2.585 -3.232,1.453 v -192.948 c -1.475,-0.182 -2.488,-0.39 -3.506,-0.42 -14.868,-0.426 -29.202,-3.316 -42.695,-9.665 -2.937,-1.382 -5.092,-1.177 -7.858,0.389 -30.283,17.153 -60.641,34.172 -90.982,51.223 -1.285,0.722 -2.592,1.403 -3.889,2.103 -0.173,-0.284 -0.346,-0.568 -0.518,-0.853 24.299,-24.267 48.598,-48.533 72.761,-72.664 -4.815,-6.042 -9.849,-11.631 -14.024,-17.802 -4.216,-6.233 -7.58,-13.043 -11.506,-19.931 -3.737,6.537 -7.354,12.863 -11.091,19.397 -66.156,-18.525 -131.935,-36.944 -197.714,-55.364 m 295.58,297.223 c -7.371,0.581 -14.061,1.014 -20.732,1.656 -9.383,0.904 -18.738,1.993 -27.899,4.411 -2.643,0.698 -4.105,1.885 -4.642,4.627 -0.688,3.517 -1.757,6.959 -2.81,11.007 4.27,-0.42 8.211,-0.823 12.155,-1.192 6.399,-0.599 12.792,-1.304 19.203,-1.732 9.099,-0.606 18.212,-0.99 27.317,-1.498 1.618,-0.09 2.622,0.374 2.507,2.753 -20.551,0.862 -41.16,1.564 -61.924,4.707 -0.926,3.212 -1.926,6.473 -2.808,9.767 -6.978,26.039 -13.946,52.08 -20.865,78.135 -0.416,1.564 -1.872,3.437 0.991,4.93 4.082,-2.763 8.192,-5.964 12.69,-8.47 4.416,-2.459 9.225,-4.211 14.436,-6.529 -0.567,-1.109 -1.011,-2.281 -1.705,-3.279 -2.563,-3.684 -5.436,-7.171 -7.776,-10.987 -4.656,-7.593 -2.596,-14.696 5.163,-18.911 8.882,-4.826 25.023,-4.995 33.984,6.309 4.562,5.754 6.005,12.027 -0.776,17.728 -3.429,2.883 -7.076,5.513 -10.706,8.145 -1.655,1.201 -3.507,2.13 -5.903,3.56 4.179,4.178 8.202,7.679 11.578,11.721 3.427,4.103 6.216,8.738 9.602,13.595 1.019,-0.819 2.192,-1.445 2.93,-2.405 5.305,-6.904 12.003,-12.089 19.554,-16.293 3.063,-1.705 3.003,-2.432 0.478,-4.884 -3.862,-3.752 -7.947,-7.353 -11.307,-11.526 -5.689,-7.064 -5.124,-13.503 1.144,-20.122 3.681,-3.887 8.183,-6.487 13.183,-8.34 5.25,-1.944 10.046,-0.398 14.703,1.822 4.115,1.961 7.538,4.926 10.433,8.421 4.36,5.261 4.761,11.382 0.477,16.931 -3.363,4.357 -7.474,8.139 -11.282,12.15 -0.976,1.029 -2.06,1.956 -3.462,3.276 4.917,3.382 9.562,6.099 13.626,9.507 4.078,3.421 7.578,7.532 11.679,11.694 1.009,-1.302 1.953,-2.226 2.547,-3.337 3.869,-7.246 8.987,-13.434 15.403,-18.557 0.351,-0.28 0.711,-0.553 1.037,-0.862 2.085,-1.975 1.826,-3.147 -0.676,-4.79 -4.247,-2.789 -8.573,-5.504 -12.547,-8.654 -6.693,-5.304 -7.361,-11.158 -2.296,-18.006 4.643,-6.279 10.949,-9.615 18.766,-9.99 4.824,-0.232 9.588,-0.029 14.113,2 3.097,1.389 5.712,3.352 7.507,6.227 2.55,4.086 2.437,8.397 -0.045,12.353 -2.857,4.555 -6.152,8.835 -9.276,13.221 -0.506,0.711 -1.11,1.352 -1.934,2.344 1.219,0.457 2.124,0.848 3.06,1.138 8.119,2.52 15.464,6.477 22.052,11.843 0.58,0.473 1.073,1.084 1.711,1.448 1.589,0.908 2.993,0.034 2.945,-1.839 -0.018,-0.727 -0.296,-1.453 -0.487,-2.17 -7.644,-28.652 -15.29,-57.304 -22.951,-85.951 -0.191,-0.715 -0.545,-1.387 -0.924,-2.329 -20.427,-3.288 -41.159,-3.74 -61.733,-4.796 -0.188,-2.648 1.12,-2.766 2.597,-2.697 6.125,0.289 12.263,0.408 18.373,0.888 11.622,0.913 23.228,2.031 34.84,3.063 1.594,0.142 3.188,0.282 5.31,0.47 -1.237,-4.583 -2.396,-8.572 -3.365,-12.606 -0.441,-1.838 -1.801,-2.362 -3.243,-2.662 -6.147,-1.277 -12.275,-2.768 -18.488,-3.564 -8.003,-1.025 -16.083,-1.44 -24.126,-2.162 -2.07,-0.186 -4.124,-0.542 -6.823,-0.906 17.522,-62.517 34.992,-124.851 52.67,-187.927 33.401,18.761 66.383,37.286 100.041,56.191 1.217,-1.54 2.476,-3.135 3.975,-5.033 -18.839,-33.505 -37.844,-67.308 -57.207,-101.745 24.247,-7.059 48.161,-13.56 72.013,-20.276 23.899,-6.729 47.818,-13.39 72.138,-20.195 -4.163,9.516 -8.31,18.535 -12.064,27.713 -3.735,9.13 -6.456,18.601 -8.649,28.799 12.797,-0.086 24.247,-3.555 35.315,-8.745 11.019,-5.166 20.321,-12.484 27.678,-22.311 0.293,0.177 0.587,0.354 0.881,0.53 -1.823,8.139 -3.547,16.303 -5.564,24.393 -0.345,1.385 -1.716,2.849 -3.007,3.603 -5.298,3.097 -10.694,6.038 -16.155,8.84 -8.534,4.378 -17.175,8.545 -25.722,12.897 -7.791,3.966 -13.58,10.385 -19.323,16.679 -11.147,12.217 -20.673,25.676 -29.09,39.912 -0.291,0.491 -0.497,1.032 -0.966,2.019 11.513,2.771 22.792,2.315 34.01,0.352 11.276,-1.973 21.63,-6.452 31.653,-13.783 -0.391,1.511 -0.41,2.108 -0.68,2.552 -3.905,6.397 -7.817,12.79 -11.788,19.146 -1.655,2.649 -4.572,3.368 -7.283,4.045 -5.514,1.379 -11.103,2.46 -16.672,3.615 -6.741,1.398 -13.519,2.633 -20.236,4.139 -10.121,2.27 -18.905,7.384 -27.409,13.116 -12.16,8.196 -33.018,24.99 -41.528,33.737 9.976,4.816 20.497,5.67 31.012,5.575 10.452,-0.094 20.745,-1.914 30.472,-6.306 0.159,0.345 0.318,0.689 0.477,1.033 -6.047,4.808 -11.733,10.203 -18.265,14.223 -4.604,2.834 -10.324,3.906 -15.604,5.582 -13.275,4.212 -26.578,8.335 -39.878,12.466 -12.865,3.996 -24.484,10.466 -35.662,17.837 -14.037,9.256 -28.417,17.889 -44.172,23.988 -0.363,0.14 -0.623,0.545 -1.415,1.27 3.654,0.418 6.804,0.922 9.972,1.116 12.696,0.776 25.391,1.639 38.099,2.131 24.812,0.96 46.397,-7.481 65.51,-22.951 9.949,-8.052 18.806,-17.163 26.977,-26.989 1.795,-2.159 3.845,-4.179 6.057,-5.905 5.544,-4.327 11.249,-8.449 17.146,-12.534 -11.704,19.727 -21.377,40.33 -28.433,63.066 7.889,-2.594 14.325,-5.671 20.585,-9.166 18.266,-10.199 34.347,-22.937 47.07,-39.742 7.83,-10.343 12.251,-22.002 13.459,-34.747 0.903,-9.525 0.978,-19.14 1.124,-28.719 0.077,-5.101 1.128,-9.562 4.266,-13.788 4.533,-6.108 8.505,-12.633 13.292,-19.847 -3.807,26.195 -2.22,51.24 2.787,77.329 2.982,-2.955 5.245,-5.039 7.33,-7.288 17.101,-18.449 29.534,-39.518 36.107,-63.942 4.291,-15.945 2.549,-31.48 -2.991,-46.698 -3.275,-8.999 -7.11,-17.799 -10.847,-26.623 -1.175,-2.773 -1.309,-5.292 -0.494,-8.23 2.187,-7.885 4.013,-15.87 6.35,-23.942 3.476,12.858 8.596,25.027 14.566,36.861 5.919,11.732 12.213,23.222 20.911,34.533 2.26,-5.633 4.348,-10.229 5.967,-14.985 4.8,-14.104 7.715,-28.568 8.262,-43.518 0.407,-11.101 -0.218,-22.065 -2.506,-32.948 -1.691,-8.045 -5.026,-15.366 -9.448,-22.208 -7.458,-11.54 -16.82,-21.431 -26.86,-30.731 -1.863,-1.726 -3.552,-3.653 -5.207,-5.585 -0.539,-0.63 -0.943,-1.553 -1.015,-2.376 -0.742,-8.491 -1.406,-16.989 -2.067,-25.487 -0.018,-0.222 0.251,-0.465 0.57,-1.017 16.035,21.373 35.679,38.528 59.179,53.064 0.198,-5.056 0.635,-9.055 0.462,-13.027 -0.791,-18.203 -3.669,-36.013 -10.545,-53.021 -3.952,-9.775 -8.689,-19.131 -15.19,-27.466 -6.928,-8.881 -15.818,-15.572 -25.469,-21.138 -8.433,-4.864 -17.167,-9.221 -25.887,-13.564 -3.01,-1.499 -4.921,-3.517 -6.265,-6.581 -3,-6.842 -6.325,-13.541 -9.885,-21.077 1.858,1.149 3.184,1.943 4.485,2.776 19.386,12.421 40.631,20.421 62.745,26.336 1.251,0.334 2.611,0.256 4.752,0.443 -2.56,-5.936 -4.593,-11.379 -7.19,-16.539 -7.677,-15.253 -17.642,-28.913 -29.822,-40.874 -7.492,-7.358 -15.508,-14.139 -24.617,-19.49 -10.865,-6.382 -22.775,-9.869 -34.988,-12.447 -7.173,-1.514 -14.392,-2.811 -21.578,-4.264 -1.142,-0.231 -2.481,-0.483 -3.29,-1.212 -5.652,-5.092 -11.188,-10.312 -16.648,-15.904 10.546,2.392 21.081,4.462 31.834,5.428 14.832,1.333 28.035,1.351 33.123,-0.794 -4.21,-3.752 -8.035,-7.513 -12.215,-10.825 -20.081,-15.909 -42.356,-27.732 -66.998,-34.811 -6.284,-1.805 -12.89,-2.937 -19.414,-3.36 -10.606,-0.688 -21.266,-0.64 -31.905,-0.677 -3.377,-0.012 -6.491,-0.485 -9.533,-1.956 -4.656,-2.251 -9.389,-4.344 -14.053,-6.933 17.348,-0.327 34.567,-0.921 52.032,-7.04 -3.808,-1.763 -6.717,-3.231 -9.717,-4.479 -18.474,-7.678 -37.676,-12.891 -57.275,-16.719 -11.183,-2.183 -22.438,-3.975 -33.872,-3.419 -8.806,0.429 -17.583,1.435 -26.386,1.969 -3.08,0.187 -6.338,0.254 -9.272,-0.531 -7.952,-2.126 -15.776,-4.731 -23.643,-7.174 -0.543,-0.169 -1.016,-0.564 -1.938,-1.092 6.155,-2.393 11.94,-4.591 17.686,-6.887 18.365,-7.337 35.455,-16.843 50.41,-29.92 10.667,-9.328 19.835,-19.989 27.708,-31.75 3.01,-4.496 2.088,-7.111 -3.337,-7.8 -4.815,-0.612 -9.842,-0.354 -14.682,0.259 -4.864,0.616 -9.653,1.998 -14.397,3.322 -3.652,1.019 -5.934,3.409 -7.326,7.198 -5.31,14.456 -15.367,25.191 -27.733,33.936 -13.583,9.606 -28.777,15.957 -44.187,21.931 -5.353,2.075 -10.262,2.093 -15.603,0.068 -15.313,-5.804 -30.365,-12.065 -43.892,-21.501 -10.089,-7.038 -18.675,-15.479 -24.719,-26.287 -1.456,-2.603 -2.881,-5.317 -3.699,-8.16 -1.086,-3.772 -3.56,-5.995 -6.994,-6.957 -5.454,-1.529 -10.989,-2.943 -16.584,-3.74 -4.226,-0.602 -8.662,-0.631 -12.891,-0.068 -4.985,0.665 -6.104,3.453 -3.365,7.627 7.101,10.824 15.439,20.626 24.958,29.419 19.097,17.639 41.894,28.728 66.063,37.399 1.404,0.504 2.8,1.027 5.03,1.846 -2.06,0.848 -3.422,1.531 -4.857,1.978 -7.007,2.182 -13.997,4.435 -21.073,6.371 -2.534,0.693 -5.311,0.902 -7.945,0.752 -11.192,-0.634 -22.361,-1.819 -33.559,-2.155 -9.596,-0.288 -19.057,1.653 -28.455,3.491 -19.743,3.862 -39.078,9.139 -57.624,17.056 -2.575,1.099 -5.094,2.33 -7.579,3.964 16.47,6.161 33.553,6.84 51.861,6.578 -1.646,1.042 -2.356,1.611 -3.158,1.977 -3.679,1.682 -7.502,3.089 -11.046,5.014 -3.43,1.863 -6.911,2.554 -10.765,2.398 -4.796,-0.195 -9.612,0.112 -14.409,-0.074 -20.474,-0.794 -39.841,3.679 -58.472,11.924 -20.036,8.866 -38.378,20.336 -54.579,35.143 -0.862,0.788 -1.606,1.706 -2.449,2.611 4.347,2.254 16.716,2.287 32.495,0.901 10.91,-0.959 21.562,-3.076 32.475,-5.24 -2.546,2.385 -5.094,4.769 -7.64,7.155 -2.186,2.051 -4.568,3.935 -6.504,6.2 -2.213,2.589 -4.96,3.54 -8.153,4.14 -8.823,1.657 -17.633,3.408 -26.398,5.349 -16.567,3.669 -31.159,11.171 -44.03,22.321 -19.16,16.601 -33.832,36.352 -43.43,59.837 -0.657,1.607 -1.194,3.263 -2.127,5.832 13.629,-2.528 25.647,-6.94 37.525,-11.785 11.785,-4.807 23.137,-10.469 34.034,-17.397 -2.684,5.591 -5.76,11.033 -7.941,16.813 -2.214,5.864 -5.921,9.416 -11.637,11.968 -10.811,4.828 -21.115,10.65 -30.921,17.4 -13.287,9.145 -22.317,21.541 -28.942,35.946 -10.29,22.374 -14.117,45.969 -13.201,70.447 0.02,0.545 0.209,1.084 0.44,2.223 12.033,-6.72 22.353,-15.051 32.316,-23.856 9.985,-8.826 19.171,-18.411 27.259,-30.121 -0.827,9.455 -1.66,17.896 -2.248,26.354 -0.169,2.439 -1.046,4.194 -2.728,5.883 -6.352,6.376 -12.768,12.701 -18.835,19.342 -7.824,8.564 -14.526,17.961 -18.56,28.96 -3.541,9.654 -4.71,19.787 -5.016,29.985 -0.684,22.81 3.654,44.69 12.713,65.632 0.41,0.946 0.946,1.837 1.774,3.426 1.347,-1.601 2.616,-2.788 3.497,-4.214 4.571,-7.393 9.38,-14.667 13.476,-22.32 7.362,-13.75 14.094,-27.813 17.677,-43.14 0.128,-0.547 0.517,-1.034 0.886,-1.743 2.292,9.072 4.675,17.838 6.618,26.7 0.437,1.993 -0.314,4.459 -1.113,6.47 -2.544,6.403 -5.407,12.677 -8.073,19.032 -3.2,7.628 -5.428,15.547 -6.904,23.684 -2.247,12.396 -0.73,24.491 3.093,36.341 6.967,21.598 18.287,40.651 33.857,57.172 1.334,1.416 2.593,2.908 3.987,4.261 0.949,0.921 2.071,1.662 3.622,2.882 3.596,-12.477 4.254,-24.977 4.792,-37.39 0.544,-12.517 0.641,-25.1 -0.997,-37.795 0.686,0.908 1.421,1.782 2.049,2.729 3.978,5.997 7.852,12.064 11.932,17.991 1.693,2.459 2.511,4.974 2.504,7.959 -0.016,7.5 0.003,15.006 0.297,22.499 0.803,20.507 7.559,38.483 21.94,53.607 15.647,16.457 33.823,29.018 54.647,37.879 1.241,0.528 2.5,1.018 3.769,1.471 0.225,0.08 0.545,-0.108 1.346,-0.295 -2.567,-11.122 -7.243,-21.455 -12.006,-31.682 -4.77,-10.241 -10.224,-20.164 -15.643,-30.742 4.652,3.511 8.775,6.903 13.18,9.875 5.042,3.402 9.047,7.719 12.915,12.353 13.102,15.7 28.306,28.886 46.868,37.858 10.669,5.157 21.957,7.907 33.794,8.163 7.941,0.173 15.908,0.379 23.829,-0.052 10.805,-0.589 21.577,-1.77 32.363,-2.697 0.054,-0.304 0.107,-0.609 0.16,-0.913 -2.257,-0.977 -4.515,-1.95 -6.77,-2.931 -12.136,-5.281 -23.755,-11.595 -34.558,-19.176 -17.809,-12.497 -37.531,-20.477 -58.268,-26.418 -10.652,-3.051 -21.187,-6.513 -31.802,-9.699 -3.218,-0.965 -6.068,-2.434 -8.639,-4.606 -4.674,-3.947 -9.45,-7.772 -14.04,-12.09 20.432,6.977 40.714,7.863 61.924,0.142 -3.908,-3.537 -7.05,-6.716 -10.53,-9.466 -10.576,-8.358 -21.187,-16.68 -31.968,-24.773 -11.143,-8.363 -23.952,-12.787 -37.576,-15.171 -7.663,-1.341 -15.283,-2.937 -22.907,-4.492 -2.047,-0.418 -4.143,-0.878 -6.025,-1.738 -1.72,-0.786 -3.698,-1.806 -4.667,-3.302 -4.314,-6.661 -8.309,-13.529 -12.402,-20.332 -0.136,-0.226 -0.086,-0.563 -0.212,-1.541 9.563,7.364 19.985,11.785 31.369,13.906 11.399,2.124 22.774,2.479 34.726,-0.221 -2.211,-3.631 -3.993,-6.719 -5.928,-9.708 -8.406,-12.987 -17.715,-25.265 -28.324,-36.562 -7.862,-8.372 -17.533,-13.922 -27.701,-18.874 -9.563,-4.656 -18.983,-9.605 -28.505,-14.347 -2.96,-1.474 -4.321,-3.829 -4.931,-6.971 -1.42,-7.315 -3.01,-14.597 -4.178,-22.171 11.339,14.44 26.275,23.089 43.51,27.973 6.287,1.782 12.722,3.325 19.824,2.693 -4.013,-18.381 -10.422,-35.533 -19.002,-52.003 3.245,-0.271 133.914,35.952 140.883,39.016 -9.265,16.439 -18.52,32.831 -27.746,49.24 -9.179,16.326 -18.327,32.669 -27.901,49.738 1.639,1.112 3.356,2.278 5.781,3.924 31.959,-17.95 64.836,-36.417 98.276,-55.199 17.576,62.705 35.056,125.068 52.733,188.134"
             style="fill:#000000;fill-opacity:1;fill-rule:nonzero;stroke:none"
             id="path24" /></g><g
           id="g26"
           transform="translate(979.7936,304.9435)"><path
             d="M 0,0 C -1.587,2.991 -2.886,5.439 -4.333,8.166 -6.314,7.151 -7.954,6.311 -9.869,5.33 -8.319,2.369 -6.986,-0.177 -5.568,-2.884 -3.575,-1.852 -2.023,-1.048 0,0 m -282.88,-65.38 c 5.613,-0.026 10.444,-0.294 15.635,0.156 -0.343,1.155 -0.335,1.977 -0.69,2.19 -3.254,1.95 -3.311,5.232 -3.33,8.333 -0.127,20.52 -0.149,41.041 -0.171,61.562 -0.002,2.579 0.413,5.036 2.502,6.955 0.496,0.456 0.439,1.512 0.751,2.742 -4.637,-0.119 -8.861,0.528 -12.963,-0.382 -0.097,-0.722 -0.28,-1.16 -0.154,-1.286 3.315,-3.291 3.227,-7.449 3.154,-11.674 -0.243,-14.076 -0.412,-28.154 -0.593,-42.231 -0.071,-5.541 -0.068,-11.084 -0.16,-16.625 -0.045,-2.739 -0.358,-5.384 -2.977,-7.126 -0.46,-0.305 -0.502,-1.239 -1.004,-2.614 m 79.084,86.473 c 0.738,-1.181 1.023,-2.264 1.597,-2.449 2.725,-0.876 2.705,-2.946 2.426,-5.097 -0.922,-7.126 -1.899,-14.244 -2.895,-21.36 -0.128,-0.911 -0.491,-1.788 -1.049,-3.746 -3.859,8.689 -7.278,16.318 -10.626,23.978 -0.773,1.769 -0.787,3.433 1.125,4.744 0.591,0.406 0.709,1.5 1.285,2.84 -3.02,-0.273 -5.225,-0.443 -7.424,-0.68 -2.313,-0.249 -4.62,-0.561 -7.203,-0.879 0.373,-1.094 0.394,-1.911 0.774,-2.143 2.379,-1.456 3.095,-3.932 4.1,-6.255 4.403,-10.172 8.84,-20.33 13.219,-30.512 0.643,-1.496 1.307,-3.062 1.513,-4.654 1.054,-8.166 1.959,-16.351 2.92,-24.529 0.441,-3.757 0.665,-7.457 -2.388,-10.425 -0.122,-0.119 0.065,-0.557 0.224,-1.63 4.934,0.437 9.913,0.659 14.923,2.052 -0.299,0.983 -0.298,1.626 -0.572,1.782 -3.246,1.849 -4.005,4.878 -4.412,8.301 -1.023,8.621 -2.282,17.213 -3.392,25.824 -0.227,1.758 -0.477,3.578 -0.267,5.315 1.311,10.849 2.736,21.684 4.156,32.519 0.292,2.229 0.65,4.408 2.801,5.864 0.48,0.325 0.283,1.649 0.438,2.814 -3.865,-0.574 -7.102,-1.055 -11.273,-1.674 m -46.401,-10.817 c 0.293,-4.706 0.648,-9.173 0.835,-13.647 0.703,-16.788 1.335,-33.58 2.034,-50.368 0.147,-3.534 0.132,-6.934 -3.144,-9.305 -0.221,-0.16 -0.082,-0.816 -0.141,-1.693 5.085,-1.046 9.954,0.523 15.494,0.349 -0.673,1.393 -0.833,2.388 -1.407,2.789 -2.068,1.445 -2.734,3.451 -2.887,5.805 -0.116,1.794 -0.404,3.577 -0.509,5.372 -0.891,15.27 -1.827,30.539 -2.591,45.816 -0.252,5.038 -0.04,10.1 -0.04,15.194 4.241,0.648 5.175,0.195 6.545,-3.581 1.585,-4.369 3.074,-8.773 4.658,-13.143 0.313,-0.864 0.87,-1.64 1.315,-2.456 0.582,2.561 0.277,4.901 0.238,7.245 -0.101,6.149 -2.343,12.486 1.491,18.327 0.108,0.164 -0.135,0.557 -0.317,1.217 -12.237,-0.62 -24.556,-1.245 -37.2,-1.886 0.233,-0.967 0.169,-1.898 0.592,-2.26 2.452,-2.098 2.694,-4.878 2.713,-7.788 0.026,-3.902 0.051,-7.806 0.167,-11.707 0.044,-1.493 0.336,-2.979 0.516,-4.469 0.341,-0.002 0.682,-0.005 1.023,-0.007 1.22,5.062 2.439,10.124 3.66,15.186 1.089,4.513 1.534,4.858 6.955,5.01 m -180.795,-52.958 c -3.251,3.551 -2.366,7.102 -1.31,10.812 5.459,19.168 10.811,38.368 16.21,57.554 0.346,1.229 0.776,2.434 1.157,3.621 5.368,-1.362 5.54,-1.556 5.584,-6.298 0.025,-2.7 0.015,-5.401 0.017,-8.102 0.003,-2.608 10e-4,-5.215 10e-4,-7.823 0.405,-0.065 0.811,-0.131 1.216,-0.197 0.44,1.293 0.96,2.565 1.306,3.883 1.066,4.058 1.997,8.153 3.114,12.197 0.718,2.599 1.502,5.194 4.312,6.527 0.514,0.244 0.6,1.392 0.928,2.236 -12.238,3.508 -24.129,6.916 -36.29,10.402 -0.123,-1.031 -0.522,-1.925 -0.233,-2.362 1.714,-2.582 1.089,-5.178 0.268,-7.785 -1.35,-4.288 -2.782,-8.55 -4.122,-12.841 -0.321,-1.028 -0.415,-2.127 -0.614,-3.194 1.288,0.447 1.913,1.213 2.446,2.038 2.363,3.652 4.69,7.327 7.048,10.982 2.43,3.767 3.035,3.941 7.924,2.259 -0.068,-0.672 -0.029,-1.426 -0.231,-2.108 -5.995,-20.262 -12,-40.522 -18.048,-60.769 -0.787,-2.637 -1.992,-5.011 -4.943,-5.984 -0.519,-0.171 -0.794,-1.085 -1.196,-1.676 5.029,-2.76 12.088,-4.446 15.456,-3.372 m 396.822,26.493 c 4.902,2.207 9.42,4.241 14.048,6.325 -0.515,0.982 -0.655,1.647 -0.925,1.705 -4.421,0.947 -5.954,4.493 -7.582,8.085 -8.102,17.874 -16.269,35.718 -24.41,53.575 -0.539,1.182 -1.055,2.374 -1.565,3.526 4.854,2.679 5.413,2.594 8.611,-1.082 3.049,-3.506 6.083,-7.024 9.164,-10.503 0.477,-0.539 1.163,-0.893 1.752,-1.333 0.029,1.532 -0.343,2.636 -0.842,3.679 -1.874,3.92 -3.785,7.822 -5.691,11.727 -1.21,2.48 -1.99,4.967 -0.974,7.775 0.236,0.652 -0.278,1.577 -0.49,2.577 -11.862,-5.318 -23.399,-10.491 -35.127,-15.75 0.44,-0.78 0.618,-1.597 1.019,-1.726 3.582,-1.16 4.879,-4.188 6.143,-7.263 1.708,-4.156 3.381,-8.327 5.127,-12.466 0.268,-0.633 0.847,-1.135 1.281,-1.698 0.033,5.467 -0.626,10.622 -1.352,15.767 -0.696,4.93 -0.172,5.776 4.914,7.301 0.576,-1.171 1.211,-2.349 1.746,-3.571 7.942,-18.108 15.842,-36.235 23.825,-54.325 1.493,-3.383 2.712,-6.658 0.748,-10.259 -0.148,-0.272 0.212,-0.821 0.58,-2.066 m -253.094,30.375 c -1.987,1.003 -3.58,2.318 -5.334,2.586 -3.54,0.543 -7.178,0.41 -10.757,0.753 -4.108,0.394 -6.58,-1.675 -8.011,-5.165 -0.786,-1.914 -1.384,-3.994 -1.576,-6.046 -0.723,-7.759 -1.238,-15.538 -1.845,-23.308 -0.841,-10.759 -1.804,-21.51 -2.476,-32.28 -0.192,-3.085 0.076,-6.311 0.8,-9.311 0.729,-3.024 2.787,-5.432 6.21,-5.731 4.627,-0.404 9.275,-0.625 13.918,-0.793 3.524,-0.127 5.996,1.676 7.517,4.76 2.879,5.839 1.914,12.115 2.145,18.353 -0.971,-0.449 -1.62,-0.983 -1.998,-1.667 -1.452,-2.625 -2.794,-5.309 -4.22,-7.948 -4.201,-7.776 -2.368,-6.701 -12.218,-6.497 -2.784,0.058 -4.127,1.387 -4.385,4.154 -0.207,2.228 -0.089,4.499 0.039,6.742 0.635,11.077 1.288,22.153 2,33.225 0.423,6.581 0.861,13.164 1.493,19.727 0.395,4.109 1.748,5.066 5.87,4.884 1.349,-0.059 2.703,-0.152 4.049,-0.092 2.545,0.113 3.842,-1.178 4.442,-3.528 1.187,-4.648 2.431,-9.281 3.697,-13.907 0.249,-0.908 0.709,-1.758 1.071,-2.634 0.31,0.05 0.619,0.101 0.928,0.151 -0.3,8.506 1.053,16.98 -0.247,25.606 -0.402,-0.736 -0.805,-1.471 -1.112,-2.034 m 206.999,-44.794 c 4.91,-1.6 4.915,-1.613 10.445,0.37 3.244,1.164 6.443,2.459 9.71,3.552 4.028,1.348 5.625,4.364 5.611,8.275 -0.007,2.055 -0.378,4.221 -1.101,6.143 -2.426,6.452 -5.084,12.816 -7.656,19.214 -2.345,5.833 -6.593,9.035 -12.904,9.689 -3.569,0.369 -7.087,1.205 -10.644,1.719 -2.087,0.301 -3.924,1.164 -4.689,3.056 -1.96,4.847 -3.785,9.761 -5.361,14.744 -0.598,1.89 -0.132,4.014 2.126,4.889 6.932,2.685 7.891,4.014 13.432,-1.873 1.234,-1.311 2.442,-2.649 3.732,-3.902 0.527,-0.512 1.242,-0.83 1.871,-1.236 0.195,0.161 0.389,0.322 0.584,0.483 -2.336,5.907 -4.672,11.813 -7.008,17.72 -0.244,-0.039 -0.487,-0.077 -0.73,-0.116 -0.157,-0.984 -0.315,-1.968 -0.54,-3.38 -2.854,2.16 -5.392,1.669 -8.021,0.567 -2.485,-1.042 -5.03,-1.965 -7.604,-2.765 -3.335,-1.036 -4.853,-3.432 -5.078,-6.673 -0.134,-1.919 -0.153,-3.981 0.402,-5.787 1.803,-5.869 3.791,-11.687 5.905,-17.452 1.86,-5.071 5.607,-7.967 10.986,-8.818 3.698,-0.585 7.366,-1.355 11.049,-2.039 2.588,-0.48 5.152,-1.275 6.228,-3.875 2.406,-5.81 4.761,-11.658 6.733,-17.623 1.076,-3.256 -0.125,-4.944 -3.409,-6.255 -2.086,-0.833 -4.257,-1.456 -6.335,-2.308 -2.287,-0.936 -4.097,-0.331 -5.63,1.438 -2.161,2.494 -4.28,5.024 -6.445,7.514 -1.029,1.182 -2.123,2.306 -3.256,3.53 -0.42,-0.603 -0.599,-0.753 -0.572,-0.835 2.291,-6.934 4.594,-13.863 6.93,-20.782 0.037,-0.109 0.501,-0.073 0.884,-0.12 0.115,0.949 0.232,1.919 0.355,2.936 m -285.117,55.273 c -2.173,0.457 -4.306,0.894 -6.434,1.355 -7.025,1.525 -14.043,3.084 -21.081,4.553 -0.747,0.156 -1.6,-0.196 -2.404,-0.312 0.124,-0.802 0.291,-1.6 0.363,-2.407 0.205,-2.321 0.958,-4.779 0.463,-6.947 -4.639,-20.297 -9.478,-40.548 -14.308,-60.801 -0.633,-2.658 -1.631,-5.131 -4.485,-6.36 -0.543,-0.234 -0.698,-1.367 -1.27,-2.598 12.104,-2.537 23.755,-4.978 35.478,-7.435 0.318,1.148 0.792,2.037 0.586,2.24 -3.492,3.46 -2.187,7.448 -1.423,11.415 0.85,4.411 1.628,8.837 2.389,13.265 0.131,0.76 0.019,1.561 0.019,2.343 -1.283,-0.886 -1.995,-1.947 -2.595,-3.067 -2.546,-4.758 -5.091,-9.517 -7.566,-14.312 -0.9,-1.743 -1.973,-3.072 -4.152,-2.624 -3.196,0.656 -6.376,1.389 -10.102,2.208 2.455,11.093 4.832,21.833 7.208,32.568 3.408,-0.69 3.523,-0.797 4.07,-3.953 0.463,-2.663 0.897,-5.332 1.343,-7.998 0.383,0.013 0.766,0.026 1.148,0.039 1.908,9.245 3.816,18.489 5.723,27.734 -1.483,-0.543 -2.213,-1.398 -2.829,-2.328 -1.16,-1.747 -2.204,-3.573 -3.39,-5.301 -1.044,-1.523 -2.347,-2.339 -4.394,-0.674 1.981,8.854 3.99,17.838 6.066,27.117 2.24,-0.422 3.978,-0.722 5.705,-1.08 4.307,-0.894 4.482,-1.068 4.958,-5.532 0.43,-4.022 0.754,-8.055 1.196,-12.075 0.165,-1.501 0.53,-2.981 0.804,-4.47 0.314,0.012 0.628,0.025 0.942,0.037 0.895,4.673 1.813,9.342 2.677,14.021 0.684,3.699 1.207,7.448 4.917,9.615 0.251,0.147 0.192,0.824 0.378,1.764 m 256.76,-9.726 c 0.283,0.187 0.567,0.374 0.85,0.561 -0.087,0.572 -0.101,1.167 -0.273,1.713 -1.439,4.576 -2.901,9.146 -4.368,13.714 -0.888,2.764 -1.432,5.48 0.049,8.279 0.297,0.562 -0.185,1.537 -0.334,2.485 -9.924,-2.902 -19.497,-5.701 -29.279,-8.562 0.266,-0.848 0.283,-1.713 0.624,-1.87 3.819,-1.746 4.517,-5.386 5.446,-8.846 3.149,-11.73 6.233,-23.477 9.357,-35.213 2.043,-7.679 4.168,-15.337 6.136,-23.034 0.671,-2.623 1.04,-5.305 -1.067,-7.674 -0.36,-0.406 0.04,-1.488 0.113,-2.624 12.116,3.09 23.74,6.261 35.391,10.513 -0.592,0.934 -0.799,1.706 -1.208,1.836 -3.678,1.163 -4.786,4.253 -5.806,7.452 -1.502,4.714 -3.007,9.427 -4.557,14.126 -0.292,0.887 -0.797,1.704 -1.203,2.554 -0.307,-0.045 -0.614,-0.089 -0.92,-0.133 0,-1.404 -0.01,-2.808 0.002,-4.212 0.041,-5.254 0.093,-10.508 0.133,-15.762 0.011,-1.527 0.037,-3.224 -1.693,-3.815 -3.48,-1.189 -6.906,-2.709 -10.925,-2.825 -3.003,10.694 -5.949,21.186 -8.872,31.597 2.495,1.818 3.861,0.493 5.139,-1.157 1.791,-2.313 3.582,-4.625 5.373,-6.938 0.329,0.172 0.659,0.343 0.988,0.515 -2.698,9.059 -5.395,18.118 -8.092,27.177 -0.369,-0.024 -0.737,-0.048 -1.105,-0.072 -0.18,-1.382 -0.413,-2.76 -0.527,-4.147 -0.135,-1.644 -0.116,-3.3 -0.257,-4.943 -0.156,-1.815 -0.869,-3.177 -3.434,-3.103 -2.724,8.826 -5.323,17.784 -7.588,27.014 2.659,0.816 4.825,1.392 6.924,2.151 2.078,0.752 3.438,0.002 4.573,-1.695 2.086,-3.119 4.209,-6.212 6.339,-9.3 1.336,-1.935 2.712,-3.842 4.071,-5.762 m -354.236,-49.753 c 0.269,1.033 0.718,1.808 0.507,2.091 -2.45,3.297 -1.401,6.969 -0.873,10.38 3.121,20.139 6.455,40.245 9.713,60.363 0.479,2.961 1.478,5.489 4.712,6.508 0.534,0.169 0.847,1.037 1.63,2.063 -5.768,2.175 -11.111,4.189 -16.562,6.244 -0.321,-0.924 -0.697,-1.57 -0.567,-1.697 2.422,-2.366 1.129,-4.603 -0.211,-6.792 -11.513,-18.81 -23.046,-37.606 -34.566,-56.41 -1.5,-2.449 -3.155,-4.648 -6.392,-4.781 -0.122,-0.005 -0.223,-0.507 -0.57,-1.356 3.468,-2.034 7.271,-3.375 11.062,-4.635 2.283,2.912 -1.962,3.01 -2.085,5.169 4.544,7.147 9.087,14.294 13.693,21.538 4.909,-1.884 9.343,-3.586 13.657,-5.241 -0.227,-8.622 -2.702,-22.318 -4.597,-25.751 -1.121,-1.16 -3.92,1.6 -4.13,-2.201 4.941,-1.742 9.995,-3.524 15.579,-5.492 m -41.009,59.183 c -4.472,-9.843 -8.704,-19.261 -13.044,-28.63 -0.955,-2.064 -2.385,-3.753 -4.905,-4.25 -0.69,-0.136 -1.202,-1.177 -2.128,-2.152 5.095,-2.254 9.546,-4.223 14.624,-6.469 0,1.59 0.312,2.592 -0.054,3.14 -1.677,2.513 -0.908,4.947 0.111,7.294 8.351,19.245 16.747,38.47 25.165,57.686 1.033,2.358 2.319,4.52 5.093,5.354 0.584,0.175 0.903,1.231 1.495,2.102 -4.181,1.975 -7.959,3.894 -12.222,5.324 -0.242,-1.149 -0.626,-1.83 -0.435,-2.251 1.379,-3.055 0.478,-5.829 -0.8,-8.624 -3.118,-6.813 -6.18,-13.651 -9.3,-20.463 -0.411,-0.896 -1.032,-1.695 -1.655,-2.701 -4.484,2.147 -8.926,3.784 -13.072,6.388 3.714,7.665 7.248,14.936 10.758,22.218 1.446,3 2.85,5.987 6.555,6.865 0.414,0.098 0.664,0.885 1.285,1.776 -4.04,2.188 -7.865,4.233 -11.96,5.841 -0.457,-0.897 -0.924,-1.401 -0.814,-1.66 1.681,-3.956 -0.131,-7.253 -1.878,-10.584 -0.974,-1.858 -1.89,-3.748 -2.83,-5.623 -7.792,-15.541 -15.581,-31.083 -23.38,-46.62 -1.487,-2.963 -2.888,-5.997 -6.847,-6.407 -0.491,-0.05 -0.885,-1.035 -1.663,-2.013 4.794,-2.353 9.286,-4.559 14.045,-6.895 0.333,1.105 0.797,1.808 0.608,2.151 -2.047,3.712 -0.412,6.932 1.181,10.2 3.611,7.41 7.175,14.843 10.794,22.248 0.501,1.024 1.211,1.946 1.912,3.054 4.479,-2.112 8.658,-4.082 13.361,-6.299 m 467.633,64.858 c 18.014,-35.014 36.02,-70.011 54.243,-105.431 -4.775,-2.251 -9.175,-4.413 -13.645,-6.419 -24.62,-11.051 -49.726,-20.852 -75.413,-29.148 -26.388,-8.522 -53.184,-15.448 -80.423,-20.661 -19.109,-3.657 -38.303,-6.74 -57.706,-8.289 -13.114,-1.046 -26.239,-2.068 -39.38,-2.631 -12.572,-0.54 -25.179,-0.867 -37.754,-0.567 -13.744,0.327 -27.493,1.193 -41.195,2.357 -13.248,1.126 -26.464,2.736 -39.648,4.482 -19.748,2.615 -39.234,6.676 -58.6,11.318 -40.902,9.804 -80.451,23.593 -118.978,40.387 -5.629,2.454 -11.178,5.095 -16.746,7.689 -0.919,0.428 -1.743,1.059 -2.858,1.749 18.105,35.173 36.125,70.181 54.23,105.354 7.184,-3.118 14.02,-6.124 20.886,-9.058 33.838,-14.458 68.714,-25.727 104.667,-33.543 17.544,-3.815 35.228,-6.988 53.132,-8.615 11.909,-1.082 23.834,-2.151 35.776,-2.655 13.322,-0.561 26.695,-1.088 40.004,-0.563 47.323,1.869 93.723,9.55 138.948,23.758 13.566,4.262 27.044,8.871 40.338,13.915 13.295,5.044 26.31,10.83 40.122,16.571"
             style="fill:#000000;fill-opacity:1;fill-rule:nonzero;stroke:none"
             id="path28" /></g><g
           id="g30"
           transform="translate(937.2557,433.7916)"><path
             d="M 0,0 C 43.335,23.867 82.118,53.063 117.204,87.399 112.963,68.381 107.141,49.938 100.438,31.767 93.749,13.634 86.045,-4.073 77.146,-22.006 c 1.986,0 3.543,-0.186 5.042,0.029 12.878,1.85 25.81,3.418 38.602,5.749 25.664,4.675 50.799,11.548 75.725,19.194 1.202,0.369 2.448,0.596 3.883,0.475 C 157.981,-39.298 110.46,-75.116 57.231,-104.343 38.167,-69.585 19.189,-34.985 0,0"
             style="fill:#000000;fill-opacity:1;fill-rule:nonzero;stroke:none"
             id="path32" /></g><g
           id="g34"
           transform="translate(743.8335,778.3135)"><path
             d="m 0,0 c 0.614,2.166 0.995,4.24 1.781,6.147 2.64,6.397 9.462,9.005 16.146,6.303 5.765,-2.33 8.429,-8.806 5.922,-15.024 -0.939,-2.331 -2.281,-4.592 -3.854,-6.552 -2.15,-2.678 -4.557,-5.191 -7.098,-7.507 -8.467,-7.717 -17.807,-14.348 -27.884,-19.673 -5.337,-2.819 -7.34,-6.131 -6.623,-11.921 0.468,-3.782 0.116,-7.667 0.131,-11.395 6.957,-0.978 63.384,-0.684 66.445,0.236 v 19.008 c -4.071,0 -7.807,0 -11.544,0 -3.752,0 -7.506,-0.084 -11.255,0.023 -3.573,0.102 -7.204,-0.451 -11.484,0.529 1.964,1.143 3.238,1.898 4.525,2.631 7.997,4.556 15.442,9.843 21.634,16.717 6.885,7.642 11.281,16.181 9.616,26.939 C 44.656,18.114 38.491,26.317 27.541,30.767 21.3,33.304 14.75,33.865 8.089,33.234 -9.342,31.583 -22.062,17.345 -21.405,0 Z m -32.828,-12.591 c -0.257,2.19 -0.471,5.947 -1.173,9.612 -1.91,9.983 -6.16,18.835 -13.914,25.602 -11.36,9.914 -24.699,12.396 -39.129,9.301 -13.726,-2.944 -23.297,-11.234 -28.88,-24.049 -4.302,-9.874 -5.188,-20.194 -3.753,-30.826 3.018,-22.356 19.198,-37.736 40.059,-38.65 12.947,-0.567 24.34,2.791 33.536,12.162 9.591,9.774 13,21.961 13.254,36.848 m -1.512,-102.953 c -53.485,-0.674 -101.442,42.623 -101.994,100.807 C -136.865,41.204 -92.385,87.79 -34.819,87.997 23.158,88.205 67.335,41.276 67.408,-13.585 67.486,-71.267 20.209,-116.059 -34.34,-115.544"
             style="fill:#000000;fill-opacity:1;fill-rule:nonzero;stroke:none"
             id="path36" /></g><g
           id="g38"
           transform="translate(499.7767,313.8416)"><path
             d="M 0,0 C 5.793,9.779 11.225,18.95 16.656,28.12 16.94,28.008 17.223,27.896 17.507,27.784 15.566,17.31 13.625,6.837 11.559,-4.312 7.676,-2.863 4.123,-1.538 0,0"
             style="fill:#000000;fill-opacity:1;fill-rule:nonzero;stroke:none"
             id="path40" /></g><g
           id="g42"
           transform="translate(645.9391,764.1614)"><path
             d="M 0,0 C -0.088,5.652 1.01,11.052 3.88,15.949 7.768,22.583 13.388,26.796 21.323,26.786 29.277,26.775 35.086,22.61 38.62,15.799 44.16,5.121 44.236,-5.968 38.451,-16.507 30.654,-30.711 12.446,-30.71 4.123,-16.786 1.041,-11.631 -0.131,-5.966 0,0"
             style="fill:#000000;fill-opacity:1;fill-rule:nonzero;stroke:none"
             id="path44" /></g></g></g></g></svg>
